<svg id="Camada_1" data-name="Camada 1" xmlns="http://www.w3.org/2000/svg" width="1021.36" height="654.06" viewBox="0 0 1021.36 654.06">
  <defs>
    <style>
      .cls-1, .cls-2 {
        fill: #fff;
      }

      .cls-2 {
        font-size: 136.42px;
        font-family: BodoniMT, Bodoni MT;
      }

      .cls-3 {
        letter-spacing: -0.01em;
      }

      .cls-4 {
        letter-spacing: 0.03em;
      }
    </style>
  </defs>
  <g>
    <g>
      <g>
        <path class="cls-1" d="M605,245.58c.8-.49,1.56-1,2.39-1.44a134.11,134.11,0,0,1,36.51-13.07,117.91,117.91,0,0,1,32.16-1.6c15.64,1.35,30.68,5.38,45.65,9.81,12.83,3.79,25.63,7.68,38.49,11.39a254.44,254.44,0,0,0,33.58,7.13,158.68,158.68,0,0,0,33.87,1.79c14.66-1,29-3.4,42.74-9,9.15-3.79,17.53-8.76,24.43-16a42.79,42.79,0,0,0,8.4-12.23q7.57-17.06-2.51-32.75a15.31,15.31,0,0,1-1.67-3.12A29.06,29.06,0,0,1,911,202.7a36.24,36.24,0,0,1-.43,21.23,54.58,54.58,0,0,1-13.2,21.76c-8.22,8.65-18.1,14.87-29,19.48a124.68,124.68,0,0,1-31.49,8.42,160.38,160.38,0,0,1-31.42,1.3,202.48,202.48,0,0,1-52-9.52c-12.58-4.13-25-8.62-37.53-13a307.87,307.87,0,0,0-32.43-9.92,152.33,152.33,0,0,0-44.43-3.66,117.92,117.92,0,0,0-24.38,4.5c-3.16.88-6.33,1.74-9.5,2.61Z"/>
        <path class="cls-1" d="M816.14,280.52c-1.22.65-1.76,1-2.34,1.24a138.14,138.14,0,0,1-34.14,9.7A118.17,118.17,0,0,1,752,292c-14.81-1.37-29-5.29-43.07-9.86-12.46-4.06-24.9-8.15-37.59-11.46a261,261,0,0,0-30.82-6.19,141.39,141.39,0,0,0-28.12-.89,85.54,85.54,0,0,0-23.85,4.9,70.38,70.38,0,0,0-18.85,10.24c-.82.62-1.49,1.56-3.15,1.59,1-1.38,1.67-2.52,2.51-3.54a67.49,67.49,0,0,1,21.72-17,84.76,84.76,0,0,1,28.39-8.57,143.41,143.41,0,0,1,31.41-.12c18.68,1.78,36.58,6.72,54.18,13,10.26,3.67,20.52,7.35,30.87,10.76a162.78,162.78,0,0,0,34,6.95,126.64,126.64,0,0,0,24.4.46c6.19-.54,12.38-1,18.54-1.8A31.16,31.16,0,0,1,816.14,280.52Z"/>
        <path class="cls-1" d="M889.18,230.29a12.25,12.25,0,0,1-3,4.71,39.56,39.56,0,0,1-11.16,8.49A70.3,70.3,0,0,1,856.33,250a117.48,117.48,0,0,1-33,1.7,159.76,159.76,0,0,1-31.66-6.05c-12.88-3.65-25.48-8.17-38.17-12.4a329.51,329.51,0,0,0-34.19-9.85c-11.09-2.41-22.28-4-33.66-3.75-3,.06-6.06.38-9.09.57-1.21.07-2.42.11-4.4.2a16.61,16.61,0,0,1,1.76-1.33A74.61,74.61,0,0,1,696,212.35a110.56,110.56,0,0,1,25.64-.49,169.6,169.6,0,0,1,32.5,6.08C767.8,221.87,781.4,226,795,230.15c9.9,3,19.84,5.9,30.07,7.57a144.33,144.33,0,0,0,18.08,2.16c1.52.06,3,.22,4.55.33a90.27,90.27,0,0,0,23.49-1.57A37.26,37.26,0,0,0,889.18,230.29Z"/>
      </g>
      <g>
        <path class="cls-1" d="M418.08,245.58c-.79-.49-1.56-1-2.38-1.44a134.05,134.05,0,0,0-36.52-13.07,117.89,117.89,0,0,0-32.16-1.6c-15.64,1.35-30.67,5.38-45.64,9.81-12.83,3.79-25.64,7.68-38.49,11.39a255.12,255.12,0,0,1-33.58,7.13,158.72,158.72,0,0,1-33.87,1.79c-14.66-1-29.06-3.4-42.74-9-9.15-3.79-17.53-8.76-24.44-16a43,43,0,0,1-8.4-12.23q-7.58-17.06,2.52-32.75a15.27,15.27,0,0,0,1.66-3.12,29.15,29.15,0,0,0-11.91,16.25,36.41,36.41,0,0,0,.43,21.23,54.69,54.69,0,0,0,13.2,21.76c8.23,8.65,18.1,14.87,29,19.48a124.68,124.68,0,0,0,31.49,8.42,160.28,160.28,0,0,0,31.41,1.3,202.48,202.48,0,0,0,52-9.52c12.58-4.13,25.05-8.62,37.53-13a308,308,0,0,1,32.44-9.92,152.27,152.27,0,0,1,44.42-3.66,118,118,0,0,1,24.39,4.5c3.16.88,6.33,1.74,9.5,2.61Z"/>
        <path class="cls-1" d="M207,280.52c1.22.65,1.76,1,2.35,1.24a138.14,138.14,0,0,0,34.14,9.7,118.1,118.1,0,0,0,27.68.57c14.81-1.37,29-5.29,43.07-9.86,12.47-4.06,24.91-8.15,37.6-11.46a261.29,261.29,0,0,1,30.81-6.19,141.49,141.49,0,0,1,28.13-.89,85.47,85.47,0,0,1,23.84,4.9,70.44,70.44,0,0,1,18.86,10.24c.81.62,1.48,1.56,3.15,1.59-1-1.38-1.67-2.52-2.51-3.54a67.63,67.63,0,0,0-21.73-17A84.63,84.63,0,0,0,404,251.28a143.42,143.42,0,0,0-31.41-.12c-18.68,1.78-36.58,6.72-54.18,13-10.26,3.67-20.52,7.35-30.87,10.76a163,163,0,0,1-34,6.95,126.66,126.66,0,0,1-24.4.46c-6.19-.54-12.38-1-18.54-1.8A31.38,31.38,0,0,0,207,280.52Z"/>
        <path class="cls-1" d="M134,230.29a12.13,12.13,0,0,0,3,4.71,39.51,39.51,0,0,0,11.15,8.49A70.24,70.24,0,0,0,166.8,250a117.48,117.48,0,0,0,33,1.7,160,160,0,0,0,31.66-6.05c12.88-3.65,25.48-8.17,38.17-12.4a330,330,0,0,1,34.18-9.85c11.1-2.41,22.28-4,33.67-3.75,3,.06,6.06.38,9.09.57,1.21.07,2.42.11,4.4.2A15.41,15.41,0,0,0,349.2,219a74.43,74.43,0,0,0-22.09-6.69,110.47,110.47,0,0,0-25.63-.49,169.46,169.46,0,0,0-32.5,6.08c-13.66,3.93-27.25,8.06-40.84,12.21-9.9,3-19.84,5.9-30.08,7.57A144.39,144.39,0,0,1,180,239.88c-1.52.06-3,.22-4.55.33A90.27,90.27,0,0,1,152,238.64,37.26,37.26,0,0,1,134,230.29Z"/>
      </g>
    </g>
    <path class="cls-1" d="M501,360.32c1.3-61.28,2.6-122.32,3.92-184l-52.19-7.36c.22-4,.42-7.64.63-11.53h51.31c1.83-4.68.64-7.07-3.93-9.18-10.71-5-15.69-16.69-12.76-28.16a24.52,24.52,0,1,1,34.67,28.26c-.87.45-2.17.56-2.61,1.25-1,1.61-2.32,3.51-2.22,5.22.07,1,2.54,2.68,3.95,2.7,14.16.2,28.31.13,42.47.13H570v11.83c-12.78,1.76-25.54,3.7-38.35,5.23-13.84,1.66-13.61,1.48-13.16,15.61,1,31.21,1.69,62.44,2.55,93.66q1.07,38,2.2,75.85c22.65,4.62,63.88-14.58,77.81-36.4l-6.15-2.21,23.8-28c1.77,14,2.8,29.45-4.86,45l-5-8.68c-.59.2-1.14.21-1.29.47-13.89,22.68-37,33.26-59.09,45.26-3.62,2-7.19,4.05-10.86,5.91-16.75,8.53-23.2,23.06-24.15,40.92-.07,1.41-1.25,2.77-1.92,4.15-.83-1.42-2.31-2.8-2.41-4.27-1.29-18.58-8.7-33.21-26.1-41.7-4.58-2.24-9-4.8-13.5-7.22-21-11.28-42.55-21.72-55.21-44.61l-5.1,9c-6.58-7.35-9-30.71-5.28-43.77,7.45,8.77,15.45,18.2,23.58,27.79l-5.69,1.73C429.82,342.8,475.25,364.28,501,360.32Zm24.89-234a14.22,14.22,0,0,0-14.29-14.15c-7.73,0-14.44,6.7-14.38,14.25s6.88,14.25,14.48,14.25A14.47,14.47,0,0,0,525.9,126.35Z"/>
    <g>
      <path class="cls-1" d="M357.57,622V577.77h5.05c6.88,10.6,23,35.28,25.81,40.07h.06c-.37-6.37-.31-12.87-.31-20.06v-20h3.47V622H387c-6.56-10.23-23-35.91-26.13-40.77h-.06c.31,5.8.25,12.24.25,20.26V622Z"/>
      <path class="cls-1" d="M424,616a35.78,35.78,0,0,0,.45,6h-3a20,20,0,0,1-.57-4.86c-1.07,2.33-3.85,5.62-10.35,5.62-7.32,0-10.48-4.74-10.48-9.47,0-6.94,5.37-10.1,14.83-10.1h6v-3.22c0-3.15-.95-7.38-8.14-7.38-6.38,0-7.32,3.34-8,5.93h-3.15c.38-3.47,2.52-8.84,11.23-8.84,7.2,0,11.23,3,11.23,10Zm-3.09-10.1h-6.18c-7,0-11.36,1.83-11.36,7.26,0,4,2.84,6.69,7.25,6.69,9,0,10.29-6,10.29-12.81Z"/>
      <path class="cls-1" d="M432.73,590.39c5.11,14.45,8.65,24.3,9.85,28.34h.06c.7-2.34,4.23-11.74,10.35-28.34h3.35L444.41,622h-3.79l-11.23-31.56Z"/>
      <path class="cls-1" d="M462.58,590.39c6.38,18.05,9.15,25.5,10.23,28.91h.06c1.26-3.85,3.79-11.17,9.91-28.91h3.28l-11.87,33.39c-3.34,9.34-5.61,11.42-11.29,11.42A20.52,20.52,0,0,1,460,635v-3.15a21.87,21.87,0,0,0,2.84.18c4.55,0,6-2.2,8.34-8.7l-12.06-33Z"/>
      <path class="cls-1" d="M543.61,622h-2.84c-.25-.51-.38-2.78-.44-7.07-1.58,3-5.05,7.57-14.26,7.57-12.69,0-19.19-9.65-19.19-22.21,0-13.19,7-23.1,19.88-23.1,9.53,0,15.84,5,17.23,13.13h-3.41c-1.89-6.25-6.24-10-13.94-10-11,0-16.1,8.59-16.1,19.76,0,10.1,4.86,19.25,15.66,19.25,11,0,14.13-7.2,14.13-17v-.5H526.07v-3.16h17.54Z"/>
      <path class="cls-1" d="M553.9,599c0-5.3-.06-7.57-.06-8.58h3.09c.06,1,.12,3,.12,7.07a12,12,0,0,1,11-7.83V593c-6.57.44-11,5-11,12.5V622H553.9Z"/>
      <path class="cls-1" d="M599.4,606.11c0,8.77-4.86,16.6-14.26,16.6-8.52,0-13.82-7-13.82-16.54,0-9,5-16.54,14.13-16.54C593.85,589.63,599.4,596.2,599.4,606.11Zm-24.74.06c0,7.51,4,13.57,10.73,13.57s10.67-5.62,10.67-13.57c0-7.45-3.79-13.57-10.8-13.57C578.07,592.6,574.66,598.6,574.66,606.17Z"/>
      <path class="cls-1" d="M630.83,612.73c0,3.1.06,8,.06,9.22h-3a52.48,52.48,0,0,1-.19-5.49c-1.32,3.72-4.54,6.25-10.16,6.25-4.54,0-10.35-1.77-10.35-11.43V590.39h3.09v20.13c0,4.61,1.46,9.09,7.7,9.09,7.07,0,9.72-4,9.72-13V590.39h3.16Z"/>
      <path class="cls-1" d="M644.33,617.28v17.29h-3.15V598.15c0-2.58,0-5.36-.07-7.76h3.1c.12,1.2.12,3.09.12,5.68,2-3.78,5.43-6.44,11.11-6.44,7.45,0,12.62,6.25,12.62,15.72,0,11.36-6.06,17.36-13.69,17.36C648.81,622.71,645.91,620.24,644.33,617.28Zm20.39-11.8c0-7.33-3.54-12.82-9.79-12.82-7.63,0-10.79,4.8-10.79,13.38s2.46,13.7,10.35,13.7C661.06,619.74,664.72,614.18,664.72,605.48Z"/>
    </g>
    <text class="cls-2" transform="translate(3.07 535.04)">MARE APE<tspan class="cls-3" x="725.19" y="0">R</tspan><tspan class="cls-4" x="827.51" y="0">T</tspan><tspan x="919.43" y="0">O</tspan></text>
    <g>
      <polygon class="cls-1" points="696.97 594.6 931.13 602.32 696.97 610.04 696.97 594.6"/>
      <polygon class="cls-1" points="325.19 610.04 91.04 602.32 325.19 594.6 325.19 610.04"/>
    </g>
    <g>
      <path class="cls-1" d="M194.94,165c-1.65,1.63-2.46,2.45-4.09,4.1l-.77-.7c5-5.06,7.52-7.53,12.66-12.35l.74.73c-1.44,1.34-2.15,2-3.57,3.38,2.51,2.44,3.31,5.14,2.44,8.11a17.76,17.76,0,0,1-4.43,7.63A16.26,16.26,0,0,1,187.09,181a14.37,14.37,0,0,1-10.68-3.25,12.46,12.46,0,0,1-4.48-10,16,16,0,0,1,5-11.39,15.53,15.53,0,0,1,6.16-3.84,4.13,4.13,0,0,0,1.35-.65,2.13,2.13,0,0,0,.37-2l.86-.83,5.62,4.9-.95.92c-4.58-2.38-8.86-1.65-12.71,2.26-2,2-3.08,3.87-3.25,5.47a5.66,5.66,0,0,0,1.15,4.21,36.84,36.84,0,0,0,4.56,4.58q5.67,5,7.95,6.14a6.25,6.25,0,0,0,4.52.61,8.8,8.8,0,0,0,4.17-2.51,10,10,0,0,0,2.21-3.28,3.35,3.35,0,0,0-.08-3A16,16,0,0,0,196,166Z"/>
      <path class="cls-1" d="M213.59,158.45l-9.78-10c-1.23,1.12-1.84,1.68-3.05,2.81l-.74-.74,3.1-2.85a36.68,36.68,0,0,0,3.47-3.49l2.67,2.79.08-.07c-.9-2.64-.46-4.75,1.31-6.28a3.86,3.86,0,0,1,2.37-1.07,2.33,2.33,0,0,1,1.93.72,1.85,1.85,0,0,1,.5,1.65,3,3,0,0,1-1.06,1.7c-1.09,1-2,1-2.84.15l-.52-.7a.47.47,0,0,0-.73,0c-.42.37-.54,1.28-.35,2.73s1.15,3.07,2.87,4.87l4.33,4.52c1.23-1.1,1.85-1.64,3.08-2.72l.71.76c-3.87,3.39-5.79,5.11-9.58,8.63l-.73-.73C211.81,160.08,212.4,159.54,213.59,158.45Z"/>
      <path class="cls-1" d="M233.24,122.6l9.48,11.57c1.05-.8,1.57-1.2,2.63-2l.65.81c-1.05.78-1.58,1.18-2.62,2a25.47,25.47,0,0,0-3.66,3.12l-2.43-2.9-.07.06a7.27,7.27,0,0,1-3,7.19,7.67,7.67,0,0,1-4.18,1.87c-1.38.11-2.92-.78-4.62-2.69l-6-6.72-2.82,2.37-.7-.77c2.65-2.24,4-3.34,6.67-5.52l7.06,8.1a11.21,11.21,0,0,0,2.59,2.4c.61.34,1.31.18,2.1-.45a5.56,5.56,0,0,0,2-4.12c.14-1.81-.64-3.75-2.37-5.81L230,126.41c-1.28,1-1.91,1.49-3.18,2.5l-.68-.79C229,125.88,230.39,124.77,233.24,122.6Z"/>
      <path class="cls-1" d="M253.26,124.39l7.38,9.66c1.25-.89,1.88-1.33,3.14-2.21l.69.93c-3.8,2.65-5.69,4-9.44,6.77l-.72-.91,2.59-1.89-15-19.25c-1.21.87-1.81,1.32-3,2.2l-.64-.81,2.3-1.69q2.52-1.84,4.52-3.58l1.95,2.55.08-.06a6.63,6.63,0,0,1,3.19-6.44,9.28,9.28,0,0,1,6.59-1.58,7.56,7.56,0,0,1,5.52,3.14,7.74,7.74,0,0,1,1.14,6.54,9.17,9.17,0,0,1-3.74,5.64,6.89,6.89,0,0,1-6.41.94Zm4.79-9.74a32.12,32.12,0,0,0-3.21-4,3,3,0,0,0-2.12-.87,3.81,3.81,0,0,0-2.1.69,5.44,5.44,0,0,0-2.44,3.31,6.23,6.23,0,0,0,0,3.16,11.92,11.92,0,0,0,1.89,3.22,14.67,14.67,0,0,0,2.74,2.89,4.55,4.55,0,0,0,3,.72,6.8,6.8,0,0,0,3.46-1.2,3,3,0,0,0,1.5-2.75Q260.67,118.26,258.05,114.65Z"/>
      <path class="cls-1" d="M275.76,109.46l6.73,10.08,3.25-2,.63,1c-3.93,2.4-5.89,3.62-9.77,6.13l-.66-1c1.07-.69,1.6-1,2.68-1.72l-13.76-20.12-3.12,2-.59-.85,2.38-1.53q2.63-1.67,4.71-3.26l1.78,2.66.08,0a6.59,6.59,0,0,1,3.56-6.2,9.12,9.12,0,0,1,6.63-1.15,7.53,7.53,0,0,1,5.28,3.48,7.7,7.7,0,0,1,.73,6.58,9.07,9.07,0,0,1-4,5.37,6.85,6.85,0,0,1-6.42.52Zm5.34-9.38a30.63,30.63,0,0,0-3-4.15,2.93,2.93,0,0,0-2-1,3.73,3.73,0,0,0-2.12.55,5.35,5.35,0,0,0-2.62,3.13,6.23,6.23,0,0,0-.21,3.14,11.38,11.38,0,0,0,1.68,3.32,14.63,14.63,0,0,0,2.54,3.06,4.5,4.5,0,0,0,3,.91,6.58,6.58,0,0,0,3.5-1,2.94,2.94,0,0,0,1.67-2.63Q283.48,103.82,281.1,100.08Z"/>
      <path class="cls-1" d="M289.73,95a7.19,7.19,0,0,1-.5-6.53,10.56,10.56,0,0,1,5.21-5.61A11.31,11.31,0,0,1,302,81.61a7.44,7.44,0,0,1,5.44,3.85,7.55,7.55,0,0,1,.26,6.74,10.44,10.44,0,0,1-5,5.43,10.85,10.85,0,0,1-7.3,1.15A8,8,0,0,1,289.73,95Zm12.9-6.93A24.47,24.47,0,0,0,300,83.94a3.21,3.21,0,0,0-2.15-1,5.38,5.38,0,0,0-3,.77,5.3,5.3,0,0,0-2.24,2,2.83,2.83,0,0,0-.29,2.32,26.9,26.9,0,0,0,2.25,4.38,24.06,24.06,0,0,0,2.79,4.12,3.36,3.36,0,0,0,2.21,1,5.29,5.29,0,0,0,2.76-.7,5.08,5.08,0,0,0,2.13-1.91,2.93,2.93,0,0,0,.31-2.34A25.69,25.69,0,0,0,302.63,88.09Z"/>
      <path class="cls-1" d="M332.84,52.94l10.5,24.13,3-1.19.4.94-2.47,1c-1.56.63-3.17,1.37-4.83,2.24-.54-1.21-.81-1.81-1.36-3l-.08,0a6.32,6.32,0,0,1-4.14,5.63,8.61,8.61,0,0,1-6.51.09,8.12,8.12,0,0,1-4.88-4.09,7.65,7.65,0,0,1-.11-6.55,8.93,8.93,0,0,1,4.93-5,6.38,6.38,0,0,1,6.42.37l.09,0-5.12-11.41-4.24,1.79-.43-.94c1.7-.72,2.55-1.08,4.25-1.78A48.4,48.4,0,0,0,332.84,52.94Zm-5,15c-1.65.71-2.44,1.66-2.39,2.83s.81,3.27,2.25,6.29q1.88,3.93,3.12,4.6a3.23,3.23,0,0,0,3,0,5.6,5.6,0,0,0,2.77-2.43,5.21,5.21,0,0,0,.77-3.16,16.72,16.72,0,0,0-1.51-4.55,6.71,6.71,0,0,0-3.37-3.73A5.73,5.73,0,0,0,327.8,67.92Z"/>
      <path class="cls-1" d="M350.49,58.13l5.58,14L359,71.11l.37,1c-4.15,1.49-6.22,2.26-10.34,3.85l-.4-.94,3.11-1.2c-2.09-5.1-3.13-7.65-5.23-12.75l-3.21,1.23-.4-.94,3.27-1.26A36.15,36.15,0,0,0,350.49,58.13Zm-7.59-5.44a1.86,1.86,0,0,1,.19-1.71,2.92,2.92,0,0,1,1.56-1.27,3.05,3.05,0,0,1,2-.08A2,2,0,0,1,348,50.78a1.87,1.87,0,0,1-.18,1.74,2.91,2.91,0,0,1-1.57,1.24,3.12,3.12,0,0,1-2,.09A2,2,0,0,1,342.9,52.69Z"/>
      <path class="cls-1" d="M382.39,55.1l-.62-2a7.19,7.19,0,0,0-1.48-3c-.48-.4-1.42-.4-2.83,0-2.54.76-3.67,1.55-3.41,2.34a1.43,1.43,0,0,0,.57.66,1.74,1.74,0,0,1,.64.86,1.41,1.41,0,0,1-.23,1.39,2.71,2.71,0,0,1-1.28.85,2.37,2.37,0,0,1-1.75,0,1.77,1.77,0,0,1-1-1c-.35-1,.08-2.1,1.31-3.25A14.45,14.45,0,0,1,378.1,49a13.39,13.39,0,0,1,4.8-.75,3.21,3.21,0,0,1,2.26,1,7.69,7.69,0,0,1,1.1,2.41l2.15,7.08a4.61,4.61,0,0,0,.85,1.86,1,1,0,0,0,.93.16,2.15,2.15,0,0,0,1.32-1.38l.55-.15q.24,3-3,3.88a3.72,3.72,0,0,1-4.73-2,8.3,8.3,0,0,1-5.24,4.93,6.45,6.45,0,0,1-4.11.09A3.55,3.55,0,0,1,372.62,64C371.5,60.72,374.72,57.67,382.39,55.1Zm.93,3c-.26-.83-.39-1.25-.66-2.07-2.82.92-4.58,1.84-5.28,2.74a3.11,3.11,0,0,0-.46,3.09,2.68,2.68,0,0,0,1.47,1.74,2.89,2.89,0,0,0,2.08.14,4.21,4.21,0,0,0,2.18-1.48,4.32,4.32,0,0,0,1-1.95A5.25,5.25,0,0,0,383.32,58.06Z"/>
      <path class="cls-1" d="M398.8,58.9c-1.47-5.29-2.21-7.94-3.68-13.24l-3.34.87-.28-1,2.09-.55c2.47-.64,4.41-1.21,5.83-1.74l1,3.75.1,0c.58-2.81,2.5-4.6,5.73-5.34,3.52-.81,5.79.11,6.77,2.7l.1,0a7.91,7.91,0,0,1,9.82-5.27,3.87,3.87,0,0,1,2.24,1.7,15.23,15.23,0,0,1,1.12,3.77c.65,3.18,1,4.77,1.61,7.95l3.23-.59.2,1c-4.32.77-6.47,1.19-10.77,2.06l-.22-1,3-.61-2.08-9.69a10.82,10.82,0,0,0-1-3.1q-.51-.79-1.92-.51a6.09,6.09,0,0,0-3.58,2.61c-1.08,1.48-1.22,3.89-.44,7.23.47,2,.71,3,1.19,5.08l3-.63c.09.4.14.6.23,1-4.19.88-6.27,1.34-10.44,2.31l-.25-1,3-.69c-.75-3-1.12-4.53-1.86-7.55s-1.28-4.66-1.68-5.15-1.09-.64-2.08-.41a4.85,4.85,0,0,0-3.15,2.29,6.39,6.39,0,0,0-1.12,3.28,19.66,19.66,0,0,0,.8,4.48l1.3,4.89,3-.71.25,1c-4.27,1-6.4,1.55-10.65,2.67l-.28-1Z"/>
      <path class="cls-1" d="M445.23,41.54c-.13-.81-.19-1.22-.32-2a6.89,6.89,0,0,0-1-3.18c-.41-.47-1.34-.6-2.79-.38-2.61.39-3.84,1-3.7,1.83a1.39,1.39,0,0,0,.46.73,1.63,1.63,0,0,1,.5.94A1.4,1.4,0,0,1,438,40.8a2.69,2.69,0,0,1-1.39.66,2.35,2.35,0,0,1-1.72-.28A1.76,1.76,0,0,1,434,40c-.19-1.06.39-2.07,1.77-3a14.52,14.52,0,0,1,6.11-2,13.32,13.32,0,0,1,4.84-.07,3.09,3.09,0,0,1,2.07,1.28,7.54,7.54,0,0,1,.73,2.53l1.05,7.3a4.52,4.52,0,0,0,.56,2,1,1,0,0,0,.89.29,2.22,2.22,0,0,0,1.51-1.18l.56-.08c-.14,2-1.33,3.12-3.57,3.42a3.68,3.68,0,0,1-4.36-2.63,8.38,8.38,0,0,1-5.88,4.13,6.41,6.41,0,0,1-4.06-.49,3.47,3.47,0,0,1-1.95-2.49C433.69,45.56,437.3,43,445.23,41.54Zm.47,3.05c-.13-.86-.2-1.29-.33-2.14-2.92.51-4.79,1.18-5.61,2a3.16,3.16,0,0,0-.91,3A2.68,2.68,0,0,0,440,49.33a2.9,2.9,0,0,0,2,.44,4.29,4.29,0,0,0,2.37-1.16,4.4,4.4,0,0,0,1.24-1.79A5.09,5.09,0,0,0,445.7,44.59Z"/>
      <path class="cls-1" d="M460.53,47.63,458.88,34l-3.44.39-.13-1,2.21-.26q3.28-.37,5.92-.94c.17,1.56.26,2.33.43,3.89h.1a7.69,7.69,0,0,1,6.64-4.75,6.38,6.38,0,0,1,3.6.61,4.77,4.77,0,0,1,2,2,10.7,10.7,0,0,1,.8,3.74c.26,3.35.4,5,.66,8.39l3.68-.26.07,1c-4.55.3-6.82.47-11.36.88l-.1-1c1.25-.12,1.87-.17,3.13-.27-.37-4-.55-6-.91-10a9.79,9.79,0,0,0-.64-3.15c-.29-.56-.92-.81-1.91-.72a5.61,5.61,0,0,0-4,2.38,7.4,7.4,0,0,0-1.29,5.51c.3,2.68.44,4,.74,6.7,1.23-.13,1.84-.19,3.07-.3,0,.4.07.61.11,1-4.38.41-6.57.65-10.94,1.17-.05-.41-.07-.61-.13-1Z"/>
      <path class="cls-1" d="M490.92,26c.09,1.82.13,2.73.21,4.56,2.32-.1,3.47-.14,5.79-.21l0,1c-2.31.06-3.46.1-5.77.2l.45,9.91a8.42,8.42,0,0,0,.48,3c.25.52.87.76,1.86.73a4.22,4.22,0,0,0,2.16-.72,4.07,4.07,0,0,0,1.53-2l1,0c-.65,2.61-2.8,4-6.45,4.11a6.44,6.44,0,0,1-3.42-.56,3,3,0,0,1-1.43-1.69,12.59,12.59,0,0,1-.4-2.81l-.55-9.66c-1.73.09-2.6.14-4.33.25,0-.41,0-.61-.07-1l4.34-.25c-.09-1.69-.14-2.53-.23-4.22A35.86,35.86,0,0,0,490.92,26Z"/>
      <path class="cls-1" d="M509.08,29.83l.05,15h3.09v1c-4.38,0-6.57,0-10.94.1l0-1,3.31-.06-.2-13.7-3.42.06c0-.41,0-.62,0-1l3.47-.06A38.21,38.21,0,0,0,509.08,29.83Zm-5-7.67a1.89,1.89,0,0,1,.79-1.54,3,3,0,0,1,1.9-.66,3.07,3.07,0,0,1,1.92.62,1.88,1.88,0,0,1,.81,1.53,1.92,1.92,0,0,1-.79,1.57,3.06,3.06,0,0,1-1.9.63,3,3,0,0,1-1.91-.61A1.92,1.92,0,0,1,504.05,22.16Z"/>
      <path class="cls-1" d="M548.39,20.18c-.89,10.42-1.34,15.64-2.23,26.06l3.18.26-.1,1-2.63-.22c-1.65-.13-3.41-.18-5.27-.15l.24-3.28h-.09A6.5,6.5,0,0,1,535.22,47a8.17,8.17,0,0,1-5.72-2.79,7.76,7.76,0,0,1,.67-11.66,9.13,9.13,0,0,1,6.65-2.24,6.1,6.1,0,0,1,5.43,3.17h.1c.36-5,.55-7.43.91-12.39-1.81-.12-2.72-.18-4.54-.28,0-.41,0-.62.07-1,1.82.1,2.73.16,4.55.28A44.79,44.79,0,0,0,548.39,20.18ZM536.91,31.26c-1.77-.1-2.91.39-3.41,1.45s-.84,3.26-1,6.58q-.22,4.31.54,5.47a3.12,3.12,0,0,0,2.6,1.26,5.72,5.72,0,0,0,3.56-.94,5.34,5.34,0,0,0,2.17-2.47,16.75,16.75,0,0,0,.83-4.7A6.46,6.46,0,0,0,541,33.1,5.49,5.49,0,0,0,536.91,31.26Z"/>
      <path class="cls-1" d="M570.56,40.69c-4.83-.63-7.25-.91-12.09-1.42-.56,3.92-.57,6.37-.05,7.34a3.79,3.79,0,0,0,3.19,1.73c3.31.38,5.77-1,7.4-4.07l1,.13a7.35,7.35,0,0,1-3.55,4,8.86,8.86,0,0,1-5,.84,10,10,0,0,1-6.29-3.08A7.57,7.57,0,0,1,553,39.9a7.48,7.48,0,0,1,3.42-5.63,9.78,9.78,0,0,1,6.83-1.7,8.87,8.87,0,0,1,5.45,2.57A6.63,6.63,0,0,1,570.56,40.69Zm-12-2.31c2.79.29,4.19.44,7,.77A16.59,16.59,0,0,0,566,37q.42-3.18-3.1-3.59a4.41,4.41,0,0,0-2.83.47,2.53,2.53,0,0,0-1.23,2C558.74,36.88,558.68,37.38,558.57,38.38Z"/>
      <path class="cls-1" d="M575.3,49.48l3.85-24.55-3.55-.49.15-1,3.41.48a31.56,31.56,0,0,0,5,.45c-1.73,10.32-2.6,15.49-4.34,25.81l3.29.52c-.07.4-.1.61-.18,1-4.45-.72-6.69-1.06-11.16-1.67l.15-1Z"/>
      <path class="cls-1" d="M588.25,51.54c1.84-9.77,2.77-14.65,4.62-24.42-1.41-.25-2.12-.37-3.53-.6.07-.41.11-.61.18-1,1.36.22,2,.34,3.39.58a32,32,0,0,0,5,.59l-5.15,25.67,3.28.62c-.09.4-.13.6-.21,1-4.44-.85-6.66-1.25-11.12-2l.18-1Z"/>
      <path class="cls-1" d="M612.81,48.33c.2-.8.29-1.2.49-2a7,7,0,0,0,.3-3.31c-.2-.58-1-1-2.45-1.35-2.58-.57-4-.43-4.15.38a1.37,1.37,0,0,0,.15.84,1.57,1.57,0,0,1,.09,1.05,1.43,1.43,0,0,1-.92,1.09,2.69,2.69,0,0,1-1.54.12,2.3,2.3,0,0,1-1.49-.87,1.69,1.69,0,0,1-.29-1.38c.23-1,1.16-1.78,2.82-2.18a14.8,14.8,0,0,1,6.48.28,13.05,13.05,0,0,1,4.53,1.67,3,3,0,0,1,1.43,1.93,7.22,7.22,0,0,1-.31,2.61l-1.85,7.15a4.47,4.47,0,0,0-.24,2,.92.92,0,0,0,.71.58,2.25,2.25,0,0,0,1.87-.56l.55.14c-.9,1.79-2.45,2.41-4.65,1.89a3.54,3.54,0,0,1-3-4,8.71,8.71,0,0,1-7.08,1.73,6.22,6.22,0,0,1-3.59-1.91,3.36,3.36,0,0,1-.84-3C600.51,47.93,604.86,46.85,612.81,48.33Zm-.74,3,.52-2.11c-2.92-.57-4.92-.61-6-.18a3.26,3.26,0,0,0-2,2.46,2.6,2.6,0,0,0,.36,2.21,2.85,2.85,0,0,0,1.72,1.13,4.42,4.42,0,0,0,2.64-.23,4.65,4.65,0,0,0,1.86-1.22A5.52,5.52,0,0,0,612.07,51.33Z"/>
      <path class="cls-1" d="M657.78,55c-5.63,4.62-8.38,7-13.78,11.75l-.58-.18c-1.51-6.92-2.34-10.38-4.13-17.31l-2.85-.81.3-1c4.64,1.3,7,2,11.56,3.41l-.32,1-3.54-1.08c1.13,4.81,1.66,7.22,2.67,12,3.73-3.31,5.63-4.94,9.48-8.18-1.41-.47-2.11-.7-3.52-1.15l.34-1c3,1,4.56,1.48,7.58,2.52l-.35,1Z"/>
      <path class="cls-1" d="M671,58.18l-5.58,14,2.92,1.09-.38,1c-4.14-1.55-6.21-2.3-10.38-3.74l.37-1,3.13,1.11,5-12.86-3.24-1.14c.14-.38.22-.57.36-1l3.3,1.16A39.45,39.45,0,0,0,671,58.18Zm-1.87-8.92a2,2,0,0,1,1.32-1.16,3.14,3.14,0,0,1,2.05,0,2.94,2.94,0,0,1,1.57,1.25,1.84,1.84,0,0,1,.2,1.72,2,2,0,0,1-1.33,1.18,3.12,3.12,0,0,1-2-.08A2.91,2.91,0,0,1,669.3,51,1.87,1.87,0,0,1,669.11,49.26Z"/>
      <path class="cls-1" d="M686.23,59.45c-.74,1.69-1.1,2.53-1.84,4.21,2.17.88,3.25,1.32,5.41,2.23l-.43.94c-2.15-.91-3.23-1.35-5.39-2.22l-4,9.14a8.84,8.84,0,0,0-.88,2.88c0,.58.46,1.06,1.39,1.44a4.31,4.31,0,0,0,2.3.25,4.19,4.19,0,0,0,2.31-1.2l.95.4c-1.76,2.09-4.33,2.41-7.75,1a6.31,6.31,0,0,1-2.89-1.93,2.8,2.8,0,0,1-.56-2.11,13,13,0,0,1,.87-2.71l3.8-9c-1.63-.63-2.44-.95-4.08-1.57l.39-.95c1.64.62,2.46.94,4.09,1.58L681.58,58A37.44,37.44,0,0,0,686.23,59.45Z"/>
      <path class="cls-1" d="M702.9,79.11l.92-1.84a6.9,6.9,0,0,0,1-3.17c-.07-.61-.77-1.23-2.12-1.85-2.43-1.11-3.83-1.27-4.19-.52a1.29,1.29,0,0,0,0,.86,1.62,1.62,0,0,1-.15,1,1.47,1.47,0,0,1-1.15.87,2.71,2.71,0,0,1-1.55-.22,2.29,2.29,0,0,1-1.28-1.17,1.69,1.69,0,0,1,0-1.41c.46-1,1.55-1.49,3.27-1.53A15.05,15.05,0,0,1,704,71.84a13,13,0,0,1,4.11,2.61,2.93,2.93,0,0,1,1,2.19,7.79,7.79,0,0,1-.88,2.49l-3.42,6.6a4.49,4.49,0,0,0-.69,1.93,1,1,0,0,0,.58.73,2.33,2.33,0,0,0,2-.15l.52.25q-1.94,2.34-5,.85a3.53,3.53,0,0,1-2.13-4.57,8.84,8.84,0,0,1-7.38.18,6.23,6.23,0,0,1-3.13-2.62,3.31,3.31,0,0,1-.17-3.12C690.82,76.1,695.36,76,702.9,79.11Zm-1.4,2.78,1-2c-2.76-1.18-4.72-1.66-5.88-1.46a3.32,3.32,0,0,0-2.53,2,2.59,2.59,0,0,0-.14,2.24,2.81,2.81,0,0,0,1.45,1.47,4.55,4.55,0,0,0,2.67.35,4.77,4.77,0,0,0,2.11-.8A5.33,5.33,0,0,0,701.5,81.89Z"/>
      <path class="cls-1" d="M723.14,98.3c2.8-4.78,4.2-7.17,7-12-1.23-.67-1.84-1-3.08-1.65l.52-.9,1.93,1c2.27,1.23,4.12,2.15,5.54,2.74-.8,1.34-1.2,2-2,3.35l.09,0c2.47-1.6,5.2-1.57,8.12.12,3.19,1.84,4.18,4,3,6.57l.09.06a7.66,7.66,0,0,1,8.42.25,7.1,7.1,0,0,1,2.7,2.76,3.64,3.64,0,0,1,.41,2.76,15.13,15.13,0,0,1-1.93,3.46l-4.64,6.75c1.14.72,1.7,1.09,2.83,1.82l-.59.85c-3.77-2.45-5.67-3.64-9.49-6l.57-.86,2.69,1.66,5.58-8.32a10.45,10.45,0,0,0,1.53-2.89c.14-.61-.21-1.18-1-1.69a6.58,6.58,0,0,0-4.56-.61c-1.89.31-3.76,1.93-5.63,4.83-1.13,1.78-1.7,2.66-2.84,4.44,1.07.63,1.6,1,2.66,1.6-.22.35-.34.52-.56.86-3.73-2.26-5.61-3.36-9.38-5.52l.54-.88,2.71,1.56c1.66-2.65,2.5-4,4.16-6.64S741,93.74,741,93.11s-.34-1.2-1.23-1.71a5.23,5.23,0,0,0-4-.53,7,7,0,0,0-3.23,1.57,20,20,0,0,0-2.68,3.74l-2.63,4.37,2.71,1.52-.54.88c-3.89-2.2-5.84-3.27-9.77-5.36l.51-.9Z"/>
      <path class="cls-1" d="M770.21,118l1.25-1.66a6.69,6.69,0,0,0,1.59-3q.06-.93-1.8-2.22c-2.23-1.54-3.6-2-4.1-1.28a1.38,1.38,0,0,0-.19.84,1.52,1.52,0,0,1-.33,1,1.47,1.47,0,0,1-1.3.64,2.77,2.77,0,0,1-1.51-.49,2.34,2.34,0,0,1-1.08-1.39,1.71,1.71,0,0,1,.27-1.4c.63-.88,1.81-1.19,3.54-.91a15.33,15.33,0,0,1,6.05,2.8,13.38,13.38,0,0,1,3.66,3.34,3,3,0,0,1,.61,2.36,7.32,7.32,0,0,1-1.32,2.3L771,124.9a4.57,4.57,0,0,0-1,1.79,1,1,0,0,0,.46.83,2.43,2.43,0,0,0,2,.22l.48.34c-1.57,1.31-3.29,1.27-5.18-.08a3.56,3.56,0,0,1-1.32-4.92A9.16,9.16,0,0,1,759,121.9a6.43,6.43,0,0,1-2.66-3.17,3.31,3.31,0,0,1,.38-3.12C758.67,112.8,763.23,113.48,770.21,118Zm-1.88,2.49,1.32-1.75c-2.55-1.68-4.43-2.5-5.62-2.52a3.32,3.32,0,0,0-2.88,1.49,2.54,2.54,0,0,0-.53,2.19,2.81,2.81,0,0,0,1.19,1.72,4.62,4.62,0,0,0,2.61.83,4.71,4.71,0,0,0,2.24-.4A5.26,5.26,0,0,0,768.33,120.48Z"/>
      <path class="cls-1" d="M777.14,133l8.77-10.8c-1.31-1-2-1.48-3.27-2.45l.64-.81c1.33,1,2,1.48,3.32,2.48a38.25,38.25,0,0,0,4,2.75l-2.45,3,.08.07c2.56-1.26,4.77-1.17,6.59.27a3.65,3.65,0,0,1,1.43,2.09,2.14,2.14,0,0,1-.45,1.94,2,2,0,0,1-1.62.73,3,3,0,0,1-1.89-.74c-1.13-.9-1.32-1.78-.56-2.68l.64-.6q.3-.36-.12-.69c-.43-.34-1.38-.32-2.83.09a9.82,9.82,0,0,0-4.55,3.47l-4,4.81c1.28,1,1.93,1.49,3.2,2.49l-.67.8c-4-3.16-6-4.7-10.11-7.73l.64-.81C775.24,131.6,775.88,132.07,777.14,133Z"/>
      <path class="cls-1" d="M805.73,136.34l-10.27,11.31,2.46,2.09-.71.77c-3.47-3-5.22-4.44-8.76-7.31l.68-.78c1.07.86,1.6,1.3,2.66,2.17L801,134.17l-2.75-2.25.69-.78,2.79,2.29A43.32,43.32,0,0,0,805.73,136.34Zm1.27-9.15a2,2,0,0,1,1.68-.62,3.21,3.21,0,0,1,2,.78,3.12,3.12,0,0,1,1.1,1.76,1.81,1.81,0,0,1-.41,1.7,2,2,0,0,1-1.7.64,3.29,3.29,0,0,1-1.95-.81,3.07,3.07,0,0,1-1.1-1.75A1.85,1.85,0,0,1,807,127.19Z"/>
      <path class="cls-1" d="M802.35,153.6l9.6-10.13-2.73-2.38c.29-.3.43-.46.71-.76.7.61,1.06.91,1.76,1.53,1.73,1.51,3.36,2.83,4.9,3.94l-2.77,2.86.07.07a8.53,8.53,0,0,1,8.43,2.05,6.68,6.68,0,0,1,2.06,3.19,4.63,4.63,0,0,1-.12,2.88,10.22,10.22,0,0,1-2.4,3.05l-6.16,6c1.12,1.07,1.68,1.61,2.8,2.7l-.76.72c-3.45-3.37-5.19-5-8.71-8.27l.73-.74,2.42,2.25,7.25-7.19a9.31,9.31,0,0,0,2-2.54q.36-.88-.78-2a6.28,6.28,0,0,0-4.72-1.58,7.74,7.74,0,0,0-5.26,2.6l-4.77,4.92,2.4,2.18-.73.74c-3.41-3.12-5.13-4.65-8.61-7.66.29-.3.43-.46.71-.76C800.77,152.21,801.3,152.67,802.35,153.6Z"/>
      <path class="cls-1" d="M835.61,174.33l1.57-1.38a6.92,6.92,0,0,0,2.15-2.61c.15-.61-.31-1.48-1.39-2.6-2-2-3.25-2.71-3.87-2.14a1.27,1.27,0,0,0-.35.79,1.59,1.59,0,0,1-.52.94,1.49,1.49,0,0,1-1.43.37,3,3,0,0,1-1.43-.81,2.44,2.44,0,0,1-.81-1.62,1.65,1.65,0,0,1,.53-1.33c.8-.74,2-.8,3.72-.16a16.09,16.09,0,0,1,5.54,4.08,14,14,0,0,1,3,4.11,3,3,0,0,1,.17,2.49,7.38,7.38,0,0,1-1.75,2l-5.71,4.92A4.56,4.56,0,0,0,833.7,183a1,1,0,0,0,.3.93,2.56,2.56,0,0,0,2,.65c.16.18.24.27.41.44-1.82,1-3.54.56-5.18-1.19s-1.73-3.42-.4-5.2a9.55,9.55,0,0,1-7.22-2.75,6.69,6.69,0,0,1-2.07-3.73,3.27,3.27,0,0,1,1-3C825,166.7,829.46,168.34,835.61,174.33Zm-2.36,2.08,1.66-1.46c-2.25-2.22-4-3.44-5.17-3.71a3.35,3.35,0,0,0-3.17.87,2.54,2.54,0,0,0-.94,2.07,3,3,0,0,0,.87,2,5.37,5.37,0,0,0,4.78,1.46A5.1,5.1,0,0,0,833.25,176.41Z"/>
    </g>
  </g>
</svg>
